<svg width="400" height="200" xmlns="http://www.w3.org/2000/svg" viewBox="0 0 -400 100">
 <title>Logo1</title>

 <g>
  <title>Layer 1</title>
  <polyline fill="none" stroke="#000" points="896,235 897,235 " id="svg_10" stroke-linecap="round"/>
  <polyline fill="none" stroke="#000" points="949,368 950,368 951,368 " id="svg_11" stroke-linecap="round"/>
  <rect fill="#fff" stroke="#000" x="509" y="375" width="2" height="0" id="svg_14"/>
  <rect fill="#fff" stroke="#000" x="525" y="350" width="1" height="0" id="svg_24"/>
  <g id="svg_2">
   <rect transform="matrix(0.463392, 0.397177, -0.43212, 0.42592, 324.678, 9.50194)" fill="#84D3DB" stroke="#000" x="71.38606" y="204.71637" width="88" height="26" id="svg_21" stroke-width="0"/>
   <rect stroke-width="0" fill="#B1FFFF" stroke="#000" x="33.62117" y="100.24963" width="321.873" height="9.90033" id="svg_18"/>
   <ellipse fill="#84D3DB" stroke="#000" cx="259.31018" cy="103.88946" id="svg_20" rx="45.30299" ry="66.97285" stroke-width="0"/>
   <g id="svg_37">
    <rect fill="#84D3DB" stroke="#000" x="81.617" y="40.43164" width="44.98619" height="133.36334" id="svg_12" stroke-width="0"/>
    <ellipse fill="#84D3DB" stroke="#000" cx="127.96091" cy="107.13411" id="svg_17" rx="45.30299" ry="66.51527" stroke-width="0"/>
   </g>
   <g id="svg_40" stroke-width="0">
    <rect fill="#ffffff" stroke="#000" x="102.6166" y="67.38717" width="21.88216" height="75.79164" id="svg_38"/>
    <ellipse fill="#ffffff" stroke="#000" cx="125.15919" cy="105.29482" id="svg_39" rx="22.03626" ry="37.80125"/>
   </g>
   <path id="svg_42" d="m271.70085,130.83115l14.9631,12.825l-5.99557,5.90955l-14.9631,-12.825l5.99557,-5.90955z" stroke-width="0" stroke="#000" fill="#ffffff"/>
   <ellipse fill="#ffffff" stroke="#000" cx="260.21533" cy="105.0542" id="svg_41" rx="25.20855" ry="37.18865" stroke-width="0"/>
   <rect fill="#84D3DB" stroke="#000" stroke-width="0" x="63.36682" y="73.82448" width="11.88016" height="62.24107" id="svg_43" rx="10"/>
   <rect fill="#84D3DB" stroke="#000" stroke-width="0" x="316.01814" y="72.73253" width="11.88016" height="62.24107" id="svg_44" rx="10"/>
   <rect fill="#84D3DB" stroke="#000" stroke-width="0" x="335.8184" y="87.29184" width="7.9201" height="32.75846" id="svg_46" rx="10"/>
   <rect fill="#84D3DB" stroke="#000" stroke-width="0" x="49.50663" y="88.01981" width="7.9201" height="32.75846" id="svg_45" rx="10"/>
  </g>
 </g>
</svg>