<svg width="800" height="600" xmlns="http://www.w3.org/2000/svg">
 <title>Logo1</title>

 <g>
  <title>Layer 1</title>
  <polyline fill="none" stroke="#000" points="896,235 897,235 " id="svg_10" stroke-linecap="round"/>
  <polyline fill="none" stroke="#000" points="949,368 950,368 951,368 " id="svg_11" stroke-linecap="round"/>
  <rect fill="#fff" stroke="#000" x="509" y="375" width="2" height="0" id="svg_14"/>
  <rect fill="#84D3DB" stroke="#000" x="445.25" y="341.30357" width="88" height="26" id="svg_21" transform="rotate(-134, 489.25, 354.304)" stroke-width="0"/>
  <rect fill="#fff" stroke="#000" x="525" y="350" width="1" height="0" id="svg_24"/>
  <rect stroke-width="0" fill="#B1FFFF" stroke="#000" x="77.42857" y="266" width="507.99994" height="17" id="svg_18"/>
  <ellipse fill="#84D3DB" stroke="#000" cx="433.62498" cy="272.25" id="svg_20" rx="71.49999" ry="115" stroke-width="0"/>
  <g id="svg_37">
   <rect fill="#84D3DB" stroke="#000" x="153.17857" y="163.28571" width="71" height="229" id="svg_12" stroke-width="0"/>
   <ellipse fill="#84D3DB" stroke="#000" cx="226.32141" cy="277.82143" id="svg_17" rx="71.49999" ry="114.21428" stroke-width="0"/>
  </g>
  <g id="svg_40" stroke-width="0">
   <rect fill="#ffffff" stroke="#000" x="186.32144" y="209.57142" width="34.53579" height="130.14285" id="svg_38"/>
   <ellipse fill="#ffffff" stroke="#000" cx="221.89955" cy="274.66315" id="svg_39" rx="34.779" ry="64.90904"/>
  </g>
  <rect fill="#ffffff" stroke="#000" x="445.4914" y="323.52127" width="32.29037" height="13.87478" id="svg_42" transform="rotate(-134, 461.637, 330.459)" stroke-width="0"/>
  <ellipse fill="#ffffff" stroke="#000" cx="435.05353" cy="274.24999" id="svg_41" rx="39.7857" ry="63.85714" stroke-width="0"/>
  <rect fill="#84D3DB" stroke="#000" stroke-width="0" x="124.375" y="220.625" width="18.75" height="106.87499" id="svg_43" rx="10"/>
  <rect fill="#84D3DB" stroke="#000" stroke-width="0" x="523.125" y="218.75" width="18.75" height="106.87499" id="svg_44" rx="10"/>
  <rect fill="#84D3DB" stroke="#000" stroke-width="0" x="102.5" y="245" width="12.5" height="56.24999" id="svg_45" rx="10"/>
  <rect fill="#84D3DB" stroke="#000" stroke-width="0" x="554.375" y="243.75" width="12.5" height="56.24999" id="svg_46" rx="10"/>
 </g>
</svg>