<svg id="visual" viewBox="0 0 960 200" width="960" height="200" xmlns="http://www.w3.org/2000/svg" xmlns:xlink="http://www.w3.org/1999/xlink" version="1.1"><rect x="0" y="0" width="960" height="200" fill="#0b0a07"></rect><path d="M0 75L16 74.2C32 73.3 64 71.7 96 62.3C128 53 160 36 192 37.8C224 39.7 256 60.3 288 69.8C320 79.3 352 77.7 384 75.5C416 73.3 448 70.7 480 70.5C512 70.3 544 72.7 576 74.3C608 76 640 77 672 81.5C704 86 736 94 768 86.2C800 78.3 832 54.7 864 49C896 43.3 928 55.7 944 61.8L960 68L960 201L944 201C928 201 896 201 864 201C832 201 800 201 768 201C736 201 704 201 672 201C640 201 608 201 576 201C544 201 512 201 480 201C448 201 416 201 384 201C352 201 320 201 288 201C256 201 224 201 192 201C160 201 128 201 96 201C64 201 32 201 16 201L0 201Z" fill="#ff6978"></path><path d="M0 79L16 87.2C32 95.3 64 111.7 96 113C128 114.3 160 100.7 192 92.8C224 85 256 83 288 84.2C320 85.3 352 89.7 384 95.8C416 102 448 110 480 104C512 98 544 78 576 65.7C608 53.3 640 48.7 672 53C704 57.3 736 70.7 768 78.7C800 86.7 832 89.3 864 87.7C896 86 928 80 944 77L960 74L960 201L944 201C928 201 896 201 864 201C832 201 800 201 768 201C736 201 704 201 672 201C640 201 608 201 576 201C544 201 512 201 480 201C448 201 416 201 384 201C352 201 320 201 288 201C256 201 224 201 192 201C160 201 128 201 96 201C64 201 32 201 16 201L0 201Z" fill="#ec5c6b"></path><path d="M0 77L16 81.2C32 85.3 64 93.7 96 93.8C128 94 160 86 192 88.5C224 91 256 104 288 112.8C320 121.7 352 126.3 384 123.7C416 121 448 111 480 102C512 93 544 85 576 90C608 95 640 113 672 113.2C704 113.3 736 95.7 768 89.7C800 83.7 832 89.3 864 94.7C896 100 928 105 944 107.5L960 110L960 201L944 201C928 201 896 201 864 201C832 201 800 201 768 201C736 201 704 201 672 201C640 201 608 201 576 201C544 201 512 201 480 201C448 201 416 201 384 201C352 201 320 201 288 201C256 201 224 201 192 201C160 201 128 201 96 201C64 201 32 201 16 201L0 201Z" fill="#da505e"></path><path d="M0 141L16 136.8C32 132.7 64 124.3 96 124.3C128 124.3 160 132.7 192 140.2C224 147.7 256 154.3 288 147.7C320 141 352 121 384 118.7C416 116.3 448 131.7 480 135.7C512 139.7 544 132.3 576 126.7C608 121 640 117 672 121.8C704 126.7 736 140.3 768 139.8C800 139.3 832 124.7 864 120.3C896 116 928 122 944 125L960 128L960 201L944 201C928 201 896 201 864 201C832 201 800 201 768 201C736 201 704 201 672 201C640 201 608 201 576 201C544 201 512 201 480 201C448 201 416 201 384 201C352 201 320 201 288 201C256 201 224 201 192 201C160 201 128 201 96 201C64 201 32 201 16 201L0 201Z" fill="#c84352"></path><path d="M0 117L16 126C32 135 64 153 96 162.5C128 172 160 173 192 166.3C224 159.7 256 145.3 288 137.3C320 129.3 352 127.7 384 134.7C416 141.7 448 157.3 480 156.3C512 155.3 544 137.7 576 127.3C608 117 640 114 672 120.8C704 127.7 736 144.3 768 153.5C800 162.7 832 164.3 864 155.8C896 147.3 928 128.7 944 119.3L960 110L960 201L944 201C928 201 896 201 864 201C832 201 800 201 768 201C736 201 704 201 672 201C640 201 608 201 576 201C544 201 512 201 480 201C448 201 416 201 384 201C352 201 320 201 288 201C256 201 224 201 192 201C160 201 128 201 96 201C64 201 32 201 16 201L0 201Z" fill="#b63646"></path><path d="M0 138L16 137C32 136 64 134 96 135.8C128 137.7 160 143.3 192 145.8C224 148.3 256 147.7 288 145.7C320 143.7 352 140.3 384 142.7C416 145 448 153 480 159.5C512 166 544 171 576 173.8C608 176.7 640 177.3 672 174C704 170.7 736 163.3 768 165C800 166.7 832 177.3 864 180.8C896 184.3 928 180.7 944 178.8L960 177L960 201L944 201C928 201 896 201 864 201C832 201 800 201 768 201C736 201 704 201 672 201C640 201 608 201 576 201C544 201 512 201 480 201C448 201 416 201 384 201C352 201 320 201 288 201C256 201 224 201 192 201C160 201 128 201 96 201C64 201 32 201 16 201L0 201Z" fill="#a52a3a"></path><path d="M0 162L16 165C32 168 64 174 96 173C128 172 160 164 192 160.2C224 156.3 256 156.7 288 157.7C320 158.7 352 160.3 384 162.7C416 165 448 168 480 168.8C512 169.7 544 168.3 576 171.2C608 174 640 181 672 185.8C704 190.7 736 193.3 768 191.3C800 189.3 832 182.7 864 179.2C896 175.7 928 175.3 944 175.2L960 175L960 201L944 201C928 201 896 201 864 201C832 201 800 201 768 201C736 201 704 201 672 201C640 201 608 201 576 201C544 201 512 201 480 201C448 201 416 201 384 201C352 201 320 201 288 201C256 201 224 201 192 201C160 201 128 201 96 201C64 201 32 201 16 201L0 201Z" fill="#941c2f"></path></svg>